<svg xmlns="http://www.w3.org/2000/svg" xmlns:xlink="http://www.w3.org/1999/xlink" width="500" zoomAndPan="magnify" viewBox="0 0 375 374.999991" height="500" preserveAspectRatio="xMidYMid meet" version="1.0"><defs><clipPath id="2f4101b77a"><path d="M 5.648438 5.648438 L 369.398438 5.648438 L 369.398438 369.398438 L 5.648438 369.398438 Z M 5.648438 5.648438 " clip-rule="nonzero"/></clipPath><clipPath id="c9f62def0e"><path d="M 5.648438 20.648438 L 5.648438 354.351562 C 5.648438 362.636719 12.363281 369.351562 20.648438 369.351562 L 354.351562 369.351562 C 362.636719 369.351562 369.351562 362.636719 369.351562 354.351562 L 369.351562 20.648438 C 369.351562 12.363281 362.636719 5.648438 354.351562 5.648438 L 20.648438 5.648438 C 12.363281 5.648438 5.648438 12.363281 5.648438 20.648438 Z M 5.648438 20.648438 " clip-rule="nonzero"/></clipPath></defs><g clip-path="url(#2f4101b77a)"><g clip-path="url(#c9f62def0e)"><path fill="#000000" d="M 222.132812 159.6875 L 357.457031 5.648438 L 325.402344 5.648438 L 207.851562 139.371094 L 114.035156 5.648438 L 5.800781 5.648438 L 147.699219 207.882812 L 5.800781 369.394531 L 37.855469 369.394531 L 161.910156 228.148438 L 261.011719 369.394531 L 369.246094 369.394531 M 49.425781 29.320312 L 98.671875 29.320312 L 325.378906 346.886719 L 276.117188 346.886719 " fill-opacity="1" fill-rule="nonzero"/></g></g></svg>